<svg width="148" height="52" viewBox="0 0 148 52" fill="none" xmlns="http://www.w3.org/2000/svg">
<rect width="148" height="52" rx="7" fill="white"/>
<rect x="13.5" y="15.5" width="121" height="22" rx="4.5" stroke="url(#paint0_linear_1_25)" stroke-width="3"/>
<path d="M19.4489 38.9091V20.9091H23.0284V23.108H23.1903C23.3494 22.7557 23.5795 22.3977 23.8807 22.0341C24.1875 21.6648 24.5852 21.358 25.0739 21.1136C25.5682 20.8636 26.1818 20.7386 26.9148 20.7386C27.8693 20.7386 28.75 20.9886 29.5568 21.4886C30.3636 21.983 31.0085 22.7301 31.4915 23.7301C31.9744 24.7244 32.2159 25.9716 32.2159 27.4716C32.2159 28.9318 31.9801 30.1648 31.5085 31.1705C31.0426 32.1705 30.4063 32.929 29.5994 33.446C28.7983 33.9574 27.9006 34.2131 26.9062 34.2131C26.2017 34.2131 25.6023 34.0966 25.108 33.8636C24.6193 33.6307 24.2188 33.3381 23.9062 32.9858C23.5938 32.6278 23.3551 32.267 23.1903 31.9034H23.0795V38.9091H19.4489ZM23.0028 27.4545C23.0028 28.233 23.1108 28.9119 23.3267 29.4915C23.5426 30.071 23.8551 30.5227 24.2642 30.8466C24.6733 31.1648 25.1705 31.3239 25.7557 31.3239C26.3466 31.3239 26.8466 31.1619 27.2557 30.8381C27.6648 30.5085 27.9744 30.054 28.1847 29.4744C28.4006 28.8892 28.5085 28.2159 28.5085 27.4545C28.5085 26.6989 28.4034 26.0341 28.1932 25.4602C27.983 24.8864 27.6733 24.4375 27.2642 24.1136C26.8551 23.7898 26.3523 23.6278 25.7557 23.6278C25.1648 23.6278 24.6648 23.7841 24.2557 24.0966C23.8523 24.4091 23.5426 24.8523 23.3267 25.4261C23.1108 26 23.0028 26.6761 23.0028 27.4545Z" fill="url(#paint1_linear_1_25)"/>
<path d="M47.6335 31.3636L47.8466 28.0653L45.0852 29.9148L43.9432 27.9034L46.9176 26.4545L43.9432 25.0057L45.0852 22.9943L47.8466 24.8438L47.6335 21.5455H49.9261L49.7045 24.8438L52.4659 22.9943L53.608 25.0057L50.642 26.4545L53.608 27.9034L52.4659 29.9148L49.7045 28.0653L49.9261 31.3636H47.6335Z" fill="url(#paint2_linear_1_25)"/>
<path d="M69.6335 31.3636L69.8466 28.0653L67.0852 29.9148L65.9432 27.9034L68.9176 26.4545L65.9432 25.0057L67.0852 22.9943L69.8466 24.8438L69.6335 21.5455H71.9261L71.7045 24.8438L74.4659 22.9943L75.608 25.0057L72.642 26.4545L75.608 27.9034L74.4659 29.9148L71.7045 28.0653L71.9261 31.3636H69.6335Z" fill="url(#paint3_linear_1_25)"/>
<path d="M91.6335 31.3636L91.8466 28.0653L89.0852 29.9148L87.9432 27.9034L90.9176 26.4545L87.9432 25.0057L89.0852 22.9943L91.8466 24.8438L91.6335 21.5455H93.9261L93.7045 24.8438L96.4659 22.9943L97.608 25.0057L94.642 26.4545L97.608 27.9034L96.4659 29.9148L93.7045 28.0653L93.9261 31.3636H91.6335Z" fill="url(#paint4_linear_1_25)"/>
<path d="M109.449 34V20.9091H112.909V23.2188H113.062C113.335 22.4517 113.79 21.8466 114.426 21.4034C115.062 20.9602 115.824 20.7386 116.71 20.7386C117.608 20.7386 118.372 20.9631 119.003 21.4119C119.634 21.8551 120.054 22.4574 120.264 23.2188H120.401C120.668 22.4688 121.151 21.8693 121.849 21.4205C122.554 20.9659 123.386 20.7386 124.347 20.7386C125.568 20.7386 126.56 21.1278 127.321 21.9062C128.088 22.679 128.472 23.7756 128.472 25.196V34H124.849V25.9119C124.849 25.1847 124.656 24.6392 124.27 24.2756C123.884 23.9119 123.401 23.7301 122.821 23.7301C122.162 23.7301 121.648 23.9403 121.278 24.3608C120.909 24.7756 120.724 25.3239 120.724 26.0057V34H117.205V25.8352C117.205 25.1932 117.02 24.6818 116.651 24.3011C116.287 23.9205 115.807 23.7301 115.21 23.7301C114.807 23.7301 114.443 23.8324 114.119 24.0369C113.801 24.2358 113.548 24.517 113.361 24.8807C113.173 25.2386 113.08 25.6591 113.08 26.142V34H109.449Z" fill="url(#paint5_linear_1_25)"/>
<defs>
<linearGradient id="paint0_linear_1_25" x1="74" y1="14" x2="74" y2="39" gradientUnits="userSpaceOnUse">
<stop stop-color="#536ABB"/>
<stop offset="1" stop-color="#CB4887"/>
</linearGradient>
<linearGradient id="paint1_linear_1_25" x1="26" y1="11" x2="26" y2="40" gradientUnits="userSpaceOnUse">
<stop stop-color="#536ABB"/>
<stop offset="1" stop-color="#CB4887"/>
</linearGradient>
<linearGradient id="paint2_linear_1_25" x1="49" y1="16" x2="49" y2="45" gradientUnits="userSpaceOnUse">
<stop stop-color="#536ABB"/>
<stop offset="1" stop-color="#CB4887"/>
</linearGradient>
<linearGradient id="paint3_linear_1_25" x1="71" y1="16" x2="71" y2="45" gradientUnits="userSpaceOnUse">
<stop stop-color="#536ABB"/>
<stop offset="1" stop-color="#CB4887"/>
</linearGradient>
<linearGradient id="paint4_linear_1_25" x1="93" y1="16" x2="93" y2="45" gradientUnits="userSpaceOnUse">
<stop stop-color="#536ABB"/>
<stop offset="1" stop-color="#CB4887"/>
</linearGradient>
<linearGradient id="paint5_linear_1_25" x1="119" y1="11" x2="119" y2="40" gradientUnits="userSpaceOnUse">
<stop stop-color="#536ABB"/>
<stop offset="1" stop-color="#CB4887"/>
</linearGradient>
</defs>
</svg>
