<svg width="148" height="36" viewBox="0 0 148 36" fill="none" xmlns="http://www.w3.org/2000/svg">
<rect width="148" height="34" rx="5" fill="white"/>
<rect x="13" y="6" width="122" height="23" rx="4" stroke="black" stroke-width="2"/>
<path d="M19.4489 29.9091V11.9091H23.0284V14.108H23.1903C23.3494 13.7557 23.5795 13.3977 23.8807 13.0341C24.1875 12.6648 24.5852 12.358 25.0739 12.1136C25.5682 11.8636 26.1818 11.7386 26.9148 11.7386C27.8693 11.7386 28.75 11.9886 29.5568 12.4886C30.3636 12.983 31.0085 13.7301 31.4915 14.7301C31.9744 15.7244 32.2159 16.9716 32.2159 18.4716C32.2159 19.9318 31.9801 21.1648 31.5085 22.1705C31.0426 23.1705 30.4063 23.929 29.5994 24.446C28.7983 24.9574 27.9006 25.2131 26.9062 25.2131C26.2017 25.2131 25.6023 25.0966 25.108 24.8636C24.6193 24.6307 24.2188 24.3381 23.9062 23.9858C23.5938 23.6278 23.3551 23.267 23.1903 22.9034H23.0795V29.9091H19.4489ZM23.0028 18.4545C23.0028 19.233 23.1108 19.9119 23.3267 20.4915C23.5426 21.071 23.8551 21.5227 24.2642 21.8466C24.6733 22.1648 25.1705 22.3239 25.7557 22.3239C26.3466 22.3239 26.8466 22.1619 27.2557 21.8381C27.6648 21.5085 27.9744 21.054 28.1847 20.4744C28.4006 19.8892 28.5085 19.2159 28.5085 18.4545C28.5085 17.6989 28.4034 17.0341 28.1932 16.4602C27.983 15.8864 27.6733 15.4375 27.2642 15.1136C26.8551 14.7898 26.3523 14.6278 25.7557 14.6278C25.1648 14.6278 24.6648 14.7841 24.2557 15.0966C23.8523 15.4091 23.5426 15.8523 23.3267 16.4261C23.1108 17 23.0028 17.6761 23.0028 18.4545Z" fill="black"/>
<path d="M47.6335 22.3636L47.8466 19.0653L45.0852 20.9148L43.9432 18.9034L46.9176 17.4545L43.9432 16.0057L45.0852 13.9943L47.8466 15.8438L47.6335 12.5455H49.9261L49.7045 15.8438L52.4659 13.9943L53.608 16.0057L50.642 17.4545L53.608 18.9034L52.4659 20.9148L49.7045 19.0653L49.9261 22.3636H47.6335Z" fill="black"/>
<path d="M69.6335 22.3636L69.8466 19.0653L67.0852 20.9148L65.9432 18.9034L68.9176 17.4545L65.9432 16.0057L67.0852 13.9943L69.8466 15.8438L69.6335 12.5455H71.9261L71.7045 15.8438L74.4659 13.9943L75.608 16.0057L72.642 17.4545L75.608 18.9034L74.4659 20.9148L71.7045 19.0653L71.9261 22.3636H69.6335Z" fill="black"/>
<path d="M91.6335 22.3636L91.8466 19.0653L89.0852 20.9148L87.9432 18.9034L90.9176 17.4545L87.9432 16.0057L89.0852 13.9943L91.8466 15.8438L91.6335 12.5455H93.9261L93.7045 15.8438L96.4659 13.9943L97.608 16.0057L94.642 17.4545L97.608 18.9034L96.4659 20.9148L93.7045 19.0653L93.9261 22.3636H91.6335Z" fill="black"/>
<path d="M109.449 25V11.9091H112.909V14.2188H113.062C113.335 13.4517 113.79 12.8466 114.426 12.4034C115.062 11.9602 115.824 11.7386 116.71 11.7386C117.608 11.7386 118.372 11.9631 119.003 12.4119C119.634 12.8551 120.054 13.4574 120.264 14.2188H120.401C120.668 13.4688 121.151 12.8693 121.849 12.4205C122.554 11.9659 123.386 11.7386 124.347 11.7386C125.568 11.7386 126.56 12.1278 127.321 12.9062C128.088 13.679 128.472 14.7756 128.472 16.196V25H124.849V16.9119C124.849 16.1847 124.656 15.6392 124.27 15.2756C123.884 14.9119 123.401 14.7301 122.821 14.7301C122.162 14.7301 121.648 14.9403 121.278 15.3608C120.909 15.7756 120.724 16.3239 120.724 17.0057V25H117.205V16.8352C117.205 16.1932 117.02 15.6818 116.651 15.3011C116.287 14.9205 115.807 14.7301 115.21 14.7301C114.807 14.7301 114.443 14.8324 114.119 15.0369C113.801 15.2358 113.548 15.517 113.361 15.8807C113.173 16.2386 113.08 16.6591 113.08 17.142V25H109.449Z" fill="black"/>
</svg>
